#define ndgi_width 64
#define ndgi_height 64
static unsigned char ndgi_bits[] = {
  0x00, 0x00, 0x00, 0x00, 0x00, 0x00, 0x00, 0x00, 0x00, 0x00, 0x00, 0x00,
  0x00, 0x00, 0x00, 0x00, 0x08, 0x02, 0x00, 0xf0, 0x93, 0x8f, 0x80, 0x00,
  0x18, 0x02, 0x00, 0x10, 0x90, 0x90, 0xc1, 0x00, 0x28, 0xe2, 0x44, 0x14,
  0x90, 0x90, 0xc1, 0x00, 0x28, 0x12, 0x45, 0x14, 0x90, 0x90, 0xa2, 0x00,
  0x48, 0x12, 0x49, 0xf2, 0x91, 0x8f, 0xa2, 0x00, 0x88, 0xf2, 0x49, 0x12,
  0x90, 0x88, 0x94, 0x00, 0x88, 0x12, 0xa8, 0x12, 0x90, 0x90, 0x94, 0x00,
  0x08, 0x13, 0x11, 0x11, 0x90, 0x90, 0x88, 0x00, 0x08, 0xe2, 0x10, 0x11,
  0x90, 0x90, 0x88, 0x00, 0x00, 0x00, 0x00, 0x00, 0x00, 0x00, 0x00, 0x00,
  0x00, 0x00, 0x00, 0x00, 0x00, 0x00, 0x00, 0x00, 0x00, 0x00, 0x00, 0x00,
  0x00, 0x00, 0x00, 0x00, 0x00, 0xe0, 0xff, 0xff, 0xff, 0x7f, 0x00, 0x00,
  0x00, 0x10, 0x00, 0x00, 0x00, 0x80, 0x01, 0x00, 0x00, 0x10, 0xff, 0xff,
  0xff, 0x8f, 0x02, 0x00, 0x00, 0x90, 0x00, 0x00, 0x00, 0x90, 0x04, 0x00,
  0x00, 0x50, 0x00, 0x00, 0x00, 0xa0, 0x08, 0x00, 0x00, 0x50, 0xfe, 0x7f,
  0x00, 0xa0, 0x10, 0x00, 0x00, 0x50, 0x00, 0x00, 0x00, 0xa0, 0x10, 0x00,
  0x00, 0x50, 0xfe, 0x00, 0x00, 0xa0, 0x10, 0x00, 0x00, 0x50, 0x00, 0x00,
  0x00, 0xa0, 0x10, 0x00, 0x00, 0x50, 0xfe, 0xff, 0x1f, 0xa0, 0x10, 0x00,
  0x00, 0x50, 0x00, 0x00, 0x00, 0xa0, 0x10, 0x00, 0x00, 0x50, 0xfe, 0x01,
  0x00, 0xa0, 0x10, 0x00, 0x00, 0x50, 0x00, 0x00, 0x00, 0xa0, 0x10, 0x00,
  0x00, 0x50, 0xfe, 0xff, 0x00, 0xa0, 0x10, 0x00, 0x00, 0x50, 0x00, 0x00,
  0x00, 0xa0, 0x10, 0x00, 0x00, 0x50, 0x7e, 0x00, 0x00, 0xa0, 0x10, 0x00,
  0x00, 0x50, 0x00, 0x00, 0x00, 0xa0, 0x10, 0x00, 0x00, 0x50, 0x00, 0x00,
  0x00, 0xa0, 0x10, 0x00, 0x00, 0x50, 0x00, 0x00, 0x00, 0xa0, 0x10, 0x00,
  0x00, 0x50, 0x7c, 0xe0, 0x11, 0xa0, 0x10, 0x00, 0x00, 0x50, 0x84, 0x10,
  0x12, 0xa0, 0x10, 0x00, 0x00, 0x50, 0x04, 0x09, 0x10, 0xa0, 0x10, 0x00,
  0x00, 0x50, 0x04, 0x09, 0x10, 0xa0, 0x10, 0x00, 0x00, 0x50, 0x04, 0x89,
  0x13, 0xa0, 0x10, 0x00, 0x00, 0x50, 0x04, 0x09, 0x12, 0xa0, 0x08, 0x00,
  0x00, 0x50, 0x04, 0x09, 0x12, 0xa0, 0x08, 0x00, 0x00, 0x50, 0x84, 0x10,
  0x13, 0xa0, 0x04, 0x00, 0x00, 0x50, 0x7c, 0xe0, 0x12, 0xa0, 0x04, 0x00,
  0x00, 0x50, 0x00, 0x00, 0x00, 0xa0, 0x02, 0x00, 0x00, 0x90, 0x00, 0x00,
  0x00, 0x90, 0x02, 0x00, 0x00, 0x10, 0xff, 0xff, 0xff, 0x8f, 0x01, 0x00,
  0x00, 0x10, 0x00, 0x00, 0x00, 0x80, 0x01, 0x00, 0x00, 0xe0, 0xff, 0xff,
  0xff, 0x7f, 0x00, 0x00, 0x00, 0x00, 0x00, 0x00, 0x00, 0x00, 0x00, 0x00,
  0x00, 0x00, 0x00, 0x00, 0x00, 0x00, 0x00, 0x00, 0x00, 0xe0, 0xff, 0xff,
  0xff, 0xff, 0x01, 0x00, 0x00, 0x10, 0x00, 0x00, 0x00, 0x80, 0x01, 0x00,
  0x00, 0x50, 0x55, 0x55, 0x55, 0x95, 0x01, 0x00, 0x00, 0x08, 0x00, 0x00,
  0x00, 0x40, 0x01, 0x00, 0x00, 0xa8, 0xaa, 0xaa, 0xaa, 0x4a, 0x01, 0x00,
  0x00, 0x04, 0x00, 0x00, 0x00, 0x20, 0x01, 0x00, 0x00, 0x54, 0x55, 0x55,
  0x55, 0x25, 0x01, 0x00, 0x00, 0x02, 0x00, 0x00, 0x00, 0x90, 0x00, 0x00,
  0x00, 0xda, 0xff, 0xff, 0xff, 0x56, 0x00, 0x00, 0x00, 0x01, 0x00, 0x00,
  0x00, 0x28, 0x00, 0x00, 0x00, 0xff, 0xff, 0xff, 0xff, 0x1f, 0x00, 0x00,
  0x00, 0x00, 0x00, 0x00, 0x00, 0x00, 0x00, 0x00, 0x00, 0x00, 0x00, 0x00,
  0x00, 0x00, 0x00, 0x00, 0x00, 0x00, 0x00, 0x00, 0x00, 0x00, 0x00, 0x00,
  0x00, 0x00, 0x00, 0x00, 0x00, 0x00, 0x00, 0x00, };
